PathFileType	4	(X/Y/Z)	Patient4_TMGait_0pt5_01_right_30.trc.trc
DataRate	CameraRate	NumFrames	NumMarkers	Units	OrigDataRate	OrigDataStartFrame	OrigNumFrames
76.502732240437	76.502732240437	7	33	mm	76.502732240437	124	       141
Frame#	Time	L.ASIS			Sacral			L.Shoulder			Chest			R.Shoulder			Neck			R.ASIS			R.Thigh.Superior			R.Thigh.Lateral			R.Thigh.Inferior			R.Patella			L.Thigh.Superior			L.Thigh.Lateral			L.Thigh.Inferior			L.Patella			L.Shank.Superior			L.Shank.Lateral			L.Shank.Inferior			R.Shank.Superior			R.Shank.Lateral			R.Shank.Inferior			R.Heel			R.Midfoot.Superior			R.Midfoot.Lateral			R.Toe			L.Heel			L.Midfoot.Lateral			L.Midfoot.Superior			L.Toe			L.Elbow			L.Wrist			R.Elbow			R.Wrist			
		X1	Y1	Z1	X2	Y2	Z2	X3	Y3	Z3	X4	Y4	Z4	X5	Y5	Z5	X6	Y6	Z6	X7	Y7	Z7	X8	Y8	Z8	X9	Y9	Z9	X10	Y10	Z10	X11	Y11	Z11	X12	Y12	Z12	X13	Y13	Z13	X14	Y14	Z14	X15	Y15	Z15	X16	Y16	Z16	X17	Y17	Z17	X18	Y18	Z18	X19	Y19	Z19	X20	Y20	Z20	X21	Y21	Z21	X22	Y22	Z22	X23	Y23	Z23	X24	Y24	Z24	X25	Y25	Z25	X26	Y26	Z26	X27	Y27	Z27	X28	Y28	Z28	X29	Y29	Z29	X30	Y30	Z30	X31	Y31	Z31	X32	Y32	Z32	X33	Y33	Z33	

124	41.047785714286	881.904753869859	955.612043897504	316.295586908608	656.915939800462	1003.166581809370	454.766995999922	854.789729273303	1425.559777506559	282.358764289239	939.752265818258	1358.471615375504	454.564411132828	838.850309550594	1437.919388472898	617.450867577311	840.935687675563	1490.076789924069	431.210738521896	871.876897745313	935.356200312309	590.973068679178	937.557561389520	752.919929128766	567.903364381400	878.060527328558	633.725038443188	632.920431176377	967.755292588444	591.468764651833	556.563907319965	993.850182310006	509.720479707803	569.277761250196	879.229501334707	729.477351629374	342.587006333015	762.363873882545	637.742069212260	277.766908398954	818.247619676467	543.687349720955	343.217052371962	800.991503341183	477.227011399917	353.256646024808	768.846943572517	412.105248245562	344.941362711799	668.098620118198	307.426817072030	293.537903625826	705.601064615153	192.679320255570	368.216191156289	979.385645972607	422.225818363082	578.000811105381	925.982402503889	307.883200848015	638.076267067689	996.438965379527	223.156631446058	586.743635213724	902.300167785816	40.724555051012	554.668546804985	1063.943323620055	111.767295887238	599.646882605750	983.265578295974	38.994342816174	631.183969183510	1186.528973048031	72.678300110535	631.259547877821	563.414426514374	42.287212148929	411.132500517675	639.693755071307	35.737137781458	333.700633378457	723.749601928800	95.717051119922	360.413895550685	851.571040365144	39.410627958337	338.166416772853	897.911885734984	1081.959425897691	146.985859236175	1128.955941962109	962.900857742602	150.287686565713	685.113644777546	1131.755572238364	725.082918343948	654.048381890211	872.519823681962	740.553863179554	
125	41.060857142857	882.842536796659	955.103954125300	318.727026164859	658.037778174592	1001.597202256267	457.839774174949	853.711719337537	1424.435246511343	284.910135331251	939.356703476802	1357.870642779982	457.030591049845	838.362321329665	1436.974845111994	620.152140112140	840.054807944446	1489.085595692982	433.722531332283	873.176710803488	933.861562665696	593.319775375501	939.690378584186	751.776514434031	569.636476243074	879.150647357883	632.187602309158	633.485229825459	969.341550018894	590.632689685334	557.562265494422	994.391522527346	508.238465216628	569.497305853834	879.052649265182	728.444405877437	344.154261524017	761.548770974997	637.443602060310	279.457783414934	816.967202260297	542.896163450103	344.609379620941	799.215482777169	476.037143904617	354.638579586245	766.318656782537	411.217928183922	346.018534027978	664.071046597522	307.917131720514	294.383589837363	700.314599956847	192.420621614181	368.513514989216	979.350185622532	419.984708343507	578.120295160103	924.608147644337	306.189327915448	637.924703139904	993.531994148604	220.753322182958	586.173813619088	896.104685637735	40.933902086472	554.124218133740	1059.148454382021	108.972982823408	598.585429866946	977.094542200289	38.060616878546	630.672668826568	1181.089776587461	67.485313063600	630.034927647682	556.807286879738	42.797466670638	410.931779838245	633.143649478349	35.868335300409	333.605790187937	717.307247839907	95.782372166590	360.305873024080	845.031088620515	39.251424811174	338.111731255310	895.577981598561	1080.327750151478	149.844410291958	1125.422453082447	958.618790434384	152.591580459471	687.989095643656	1128.853008129461	728.155346145690	662.501407269349	868.759667223993	742.385242972689	
126	41.073928571429	883.746473169928	954.721338356718	321.225220895342	659.159350220144	1000.209835066076	461.071636276847	852.680641036078	1423.491039201772	287.638564728604	939.050679496820	1357.402350575701	459.637303020013	838.017392223101	1436.121297296709	623.064767833641	839.277486256914	1488.255705016082	436.435242485998	874.636688518782	932.595373946089	595.730460031831	942.186930914131	751.066635583077	571.156229873052	880.903156636347	631.086290851326	634.047153544256	971.491422685286	590.232728935671	558.437286214225	995.449987668273	506.970136922627	569.680521245533	879.059117179445	727.514889918490	345.744403328616	760.964423972443	637.111558585433	281.329488414711	816.148979791333	542.104000504193	346.100125910513	798.024796288419	474.728217615014	356.068968819902	764.195248460756	410.233831528241	347.205756170770	660.290368172371	308.482089066677	295.411695391491	695.163313641486	192.158074606835	368.898047789282	979.656865825462	417.969540309524	578.261367775304	923.440229792001	304.867082256563	637.994713910026	990.437058187715	218.524780412463	585.676528517103	889.220654397617	41.287965777346	553.764429203465	1053.680626871857	106.380053184054	597.625107358051	970.262493787450	37.309722428483	630.347404037802	1175.023729069822	62.577447235721	628.946340171744	550.212660079153	43.443244484317	410.788012255245	626.596533674870	36.055451383737	333.551249129550	710.934174472018	95.853086265607	360.208883039578	838.510469223720	39.074147995837	338.045143551286	892.881387849189	1078.750649149115	152.980246904242	1121.095050937483	953.575799342834	154.942740813491	691.279645535434	1125.880771386158	731.429926003781	672.075167430451	865.000748135455	744.545573519061	
127	41.087000000000	884.557875860326	954.487951298068	323.769092271421	660.232672874964	999.062896924052	464.422195685665	851.721723738946	1422.784950354865	290.533572786074	938.838758374774	1357.089731994880	462.365528140029	837.842816607604	1435.391500478022	626.166861988797	838.627766993066	1487.628102985570	439.344595298074	876.226079799716	931.617788147134	598.192287405838	944.904113539653	750.774617612779	572.447690770993	883.202214913311	630.429529433230	634.649671787008	974.005656010313	590.205373295163	559.177358707153	996.851409732979	505.918479387294	569.843010718560	879.276452915037	726.749100929844	347.374453268264	760.687135559730	636.739066867744	283.378237715583	815.925582196864	541.321684901131	347.676197080140	797.585877771731	473.292038276451	357.490959547443	762.588076806516	409.152216599922	348.476965161668	656.844342311359	309.160236689464	296.619108676072	690.210903865740	191.924770583274	369.357865569056	980.188317235689	416.233515590268	578.435347490748	922.486372949951	303.919491590975	638.300169942156	987.269388060134	216.558888961923	585.273997846593	882.048292723365	41.692231885421	553.586900886285	1047.814197453681	104.144187097052	596.830767687536	963.152398773618	36.752515893918	630.209214700439	1168.638792603904	58.307491328811	628.064937490391	543.658584138031	44.317116389389	410.710484242135	620.067501986737	36.345768184281	333.545801002028	704.675169592429	95.937742601587	360.115246966658	832.011620376301	38.879989869086	337.968923321977	889.834051192415	1077.297137957210	156.402354957703	1115.910134406945	947.822008374666	157.344382703918	694.979511842995	1122.900519389430	734.866283563208	682.698480990789	861.369990037002	747.052544347204	
128	41.100071428571	885.218811983125	954.420272428775	326.340504335184	661.221248921496	998.195614979614	467.864277059051	850.842351633623	1422.364267105151	293.581047486056	938.714994575156	1356.950576256515	465.190489408419	837.854390972445	1434.811411222190	629.427238858302	838.113781845356	1487.233030384832	442.440919806093	877.914196228971	930.970102089149	600.694578570386	947.688347099579	750.844943891659	573.520684000728	885.883221266937	630.184480869022	635.330719445571	976.647435151384	590.450115551212	559.782405902012	998.382888247047	505.058298564643	569.996399318945	879.745751170472	726.203944929424	349.065999911031	760.824114281715	636.316864201687	285.590312725314	816.458699701122	540.560961873065	349.315868972187	798.087817598206	471.726945150227	358.838235336417	761.638049161822	407.978508726769	349.794625777602	653.853700511634	310.001198391712	297.987480586072	685.546368269773	191.770275042808	369.870538827872	980.773869038753	414.789150996657	578.641529393111	921.662678657281	303.314884974519	638.815860240053	984.056663166475	214.900692294832	584.969672961828	874.862803915947	42.076446355237	553.570550425708	1041.741921785900	102.351867649581	596.236126774054	956.025943725020	36.382440941464	630.236860788428	1162.142685359694	54.879806115938	627.421126790234	537.189986083379	45.549572355934	410.700020118722	613.582367976934	36.812048159868	333.592813215016	698.589100347135	96.055724928698	360.011565733208	825.534944719110	38.670852814101	337.887245120011	886.449317103943	1076.034851209000	160.113005648405	1109.789568912073	941.419650472505	159.806687884549	699.099580118392	1119.961493831472	738.428671676833	694.321063660465	857.984142433963	749.912383294077	
129	41.113142857143	885.681726570750	954.526217185909	328.924019578881	662.103941102128	997.622278407210	471.388416171929	850.027708971218	1422.258816059171	296.765061042570	938.663285579560	1356.995018458924	468.083362557231	838.056313668427	1434.396333028015	632.809764357157	837.725789249505	1487.085586371943	445.710390075790	879.671835272888	930.668486890722	603.226953502437	950.382437148782	751.178932480088	574.417359583980	888.728995999524	630.278088927839	636.123677254871	979.155572080193	590.840449044260	560.271854589325	999.804164864554	504.341923140896	570.148748695936	880.520521496322	725.926199151229	350.839286414411	761.507278523739	635.834495895721	287.940949744093	817.926885149152	539.835489691491	350.989160958389	799.726661989749	470.041475706629	360.041613864743	761.507774800999	406.726779952782	351.113001935413	651.469466464991	311.064842853187	299.482374399098	681.282699227722	191.762364217166	370.404542682600	981.207001379636	413.612761595125	578.874764030908	920.814172951561	302.989963179551	639.489002376256	980.757806347955	213.552894594246	584.755246851087	867.820075901776	42.394983366796	553.682008849063	1035.580982267039	101.021522044059	595.843119073511	949.031105946431	36.177166146935	630.395463944345	1155.653347250194	52.352771933903	627.008463239120	530.871517241552	47.310715990554	410.747091666773	607.180004767216	37.557425175652	333.688259863862	692.748489252601	96.241105263255	359.879575215474	819.078586659022	38.448346813706	337.806152587693	882.739753761870	1075.022021558528	164.106059573473	1102.642950281163	934.443208232491	162.346577362748	703.668617002313	1117.098327645843	742.090673509484	706.922411509875	854.946733666323	753.116302822142	
130	41.126214285714	885.915133004659	954.803741638103	331.506715436075	662.875006594117	997.331264950704	475.003116786234	849.239414135988	1422.476394982450	300.069850309912	938.659267194556	1357.224087449613	471.013329544491	838.443755201823	1434.148568326637	636.279353661748	837.437443713297	1487.183539299930	449.137098566819	881.470579956002	930.701693157448	605.776920515112	952.835352331917	751.643811018939	575.215893089759	891.480056289360	630.608041115053	637.058782162010	981.268806052329	591.244915861579	560.689855171293	1000.870060686677	503.711472502562	570.309873502949	881.663532619667	725.948606260211	352.709022654464	762.883085357281	635.282995457565	290.395288550071	820.509003399979	539.163465367801	352.661489348667	802.685717803755	468.258168288612	361.040304126170	762.369750087395	405.422082165366	352.384575424584	649.866450462233	312.419514607321	301.054910894360	677.552480683898	191.987339218304	370.922809216285	981.271891592412	412.656696324446	579.135963800233	919.746865924657	302.861533720437	640.257430592013	977.288838271494	212.485201474771	584.620087346854	860.975253684068	42.624938395289	553.882115847270	1029.384465560459	100.116522716270	595.628337671851	942.220437210625	36.103795001863	630.645747163292	1149.215348548616	50.665979959221	626.794621038280	524.788907677746	49.807721889565	410.831000086497	600.914047971925	38.718273650272	333.819459990974	687.237646411190	96.546083759329	359.698331107051	812.639458309821	38.212223054754	337.733101470063	878.714334588305	1074.299796367334	168.366356411602	1094.371490089031	926.978613832533	164.986788141396	708.734140311961	1114.330299987698	745.838804052420	720.517236740174	852.346537031865	756.638456591660	
